<mxfile host="app.diagrams.net" agent="Mozilla/5.0 (Windows NT 10.0; Win64; x64) AppleWebKit/537.36 (KHTML, like Gecko) Chrome/134.0.0.0 Safari/537.36" version="26.1.0">
  <diagram name="Page-1" id="2YBvvXClWsGukQMizWep">
    <mxGraphModel grid="1" page="1" gridSize="10" guides="1" tooltips="1" connect="1" arrows="1" fold="1" pageScale="1" pageWidth="850" pageHeight="1100" math="0" shadow="0">
      <root>
        <mxCell id="0" />
        <mxCell id="1" parent="0" />
        <mxCell id="kfOWuWQR7v8aWOptGOJp-2" value="Administrador" style="shape=umlLifeline;perimeter=lifelinePerimeter;whiteSpace=wrap;html=1;container=1;dropTarget=0;collapsible=0;recursiveResize=0;outlineConnect=0;portConstraint=eastwest;newEdgeStyle={&quot;curved&quot;:0,&quot;rounded&quot;:0};participant=umlActor;labelPosition=center;verticalLabelPosition=top;align=center;verticalAlign=bottom;" vertex="1" parent="1">
          <mxGeometry x="170" y="120" width="20" height="870" as="geometry" />
        </mxCell>
        <mxCell id="kfOWuWQR7v8aWOptGOJp-28" value="" style="html=1;points=[[0,0,0,0,5],[0,1,0,0,-5],[1,0,0,0,5],[1,1,0,0,-5]];perimeter=orthogonalPerimeter;outlineConnect=0;targetShapes=umlLifeline;portConstraint=eastwest;newEdgeStyle={&quot;curved&quot;:0,&quot;rounded&quot;:0};" vertex="1" parent="kfOWuWQR7v8aWOptGOJp-2">
          <mxGeometry x="5" y="400" width="10" height="30" as="geometry" />
        </mxCell>
        <mxCell id="kfOWuWQR7v8aWOptGOJp-39" value="" style="html=1;points=[[0,0,0,0,5],[0,1,0,0,-5],[1,0,0,0,5],[1,1,0,0,-5]];perimeter=orthogonalPerimeter;outlineConnect=0;targetShapes=umlLifeline;portConstraint=eastwest;newEdgeStyle={&quot;curved&quot;:0,&quot;rounded&quot;:0};" vertex="1" parent="kfOWuWQR7v8aWOptGOJp-2">
          <mxGeometry x="5" y="750" width="10" height="20" as="geometry" />
        </mxCell>
        <mxCell id="kfOWuWQR7v8aWOptGOJp-3" value="Sistema" style="shape=umlLifeline;perimeter=lifelinePerimeter;whiteSpace=wrap;html=1;container=1;dropTarget=0;collapsible=0;recursiveResize=0;outlineConnect=0;portConstraint=eastwest;newEdgeStyle={&quot;curved&quot;:0,&quot;rounded&quot;:0};" vertex="1" parent="1">
          <mxGeometry x="495" y="100" width="100" height="890" as="geometry" />
        </mxCell>
        <mxCell id="kfOWuWQR7v8aWOptGOJp-24" value="" style="html=1;points=[[0,0,0,0,5],[0,1,0,0,-5],[1,0,0,0,5],[1,1,0,0,-5]];perimeter=orthogonalPerimeter;outlineConnect=0;targetShapes=umlLifeline;portConstraint=eastwest;newEdgeStyle={&quot;curved&quot;:0,&quot;rounded&quot;:0};" vertex="1" parent="kfOWuWQR7v8aWOptGOJp-3">
          <mxGeometry x="45" y="80" width="10" height="20" as="geometry" />
        </mxCell>
        <mxCell id="kfOWuWQR7v8aWOptGOJp-25" value="" style="html=1;points=[[0,0,0,0,5],[0,1,0,0,-5],[1,0,0,0,5],[1,1,0,0,-5]];perimeter=orthogonalPerimeter;outlineConnect=0;targetShapes=umlLifeline;portConstraint=eastwest;newEdgeStyle={&quot;curved&quot;:0,&quot;rounded&quot;:0};" vertex="1" parent="kfOWuWQR7v8aWOptGOJp-3">
          <mxGeometry x="45" y="120" width="10" height="20" as="geometry" />
        </mxCell>
        <mxCell id="kfOWuWQR7v8aWOptGOJp-35" value="" style="html=1;points=[[0,0,0,0,5],[0,1,0,0,-5],[1,0,0,0,5],[1,1,0,0,-5]];perimeter=orthogonalPerimeter;outlineConnect=0;targetShapes=umlLifeline;portConstraint=eastwest;newEdgeStyle={&quot;curved&quot;:0,&quot;rounded&quot;:0};" vertex="1" parent="kfOWuWQR7v8aWOptGOJp-3">
          <mxGeometry x="45" y="740" width="10" height="30" as="geometry" />
        </mxCell>
        <mxCell id="kfOWuWQR7v8aWOptGOJp-36" value="Elimina&lt;div&gt;&amp;nbsp;producto&lt;/div&gt;" style="html=1;align=left;spacingLeft=2;endArrow=block;rounded=0;edgeStyle=orthogonalEdgeStyle;curved=0;rounded=0;exitX=0.501;exitY=0.77;exitDx=0;exitDy=0;exitPerimeter=0;" edge="1" parent="kfOWuWQR7v8aWOptGOJp-3" source="kfOWuWQR7v8aWOptGOJp-3" target="kfOWuWQR7v8aWOptGOJp-35">
          <mxGeometry x="-0.0366" relative="1" as="geometry">
            <mxPoint x="55" y="710" as="sourcePoint" />
            <Array as="points">
              <mxPoint x="85" y="708" />
              <mxPoint x="85" y="740" />
            </Array>
            <mxPoint x="60" y="740" as="targetPoint" />
            <mxPoint y="-1" as="offset" />
          </mxGeometry>
        </mxCell>
        <mxCell id="kfOWuWQR7v8aWOptGOJp-4" value="Accede a la sección catalogo" style="html=1;verticalAlign=bottom;endArrow=block;curved=0;rounded=0;" edge="1" parent="1" target="kfOWuWQR7v8aWOptGOJp-3">
          <mxGeometry width="80" relative="1" as="geometry">
            <mxPoint x="179.5" y="180" as="sourcePoint" />
            <mxPoint x="469.5" y="180" as="targetPoint" />
          </mxGeometry>
        </mxCell>
        <mxCell id="kfOWuWQR7v8aWOptGOJp-6" value="Elige agregar/modificar/eliminar producto" style="html=1;verticalAlign=bottom;endArrow=block;curved=0;rounded=0;" edge="1" parent="1" target="kfOWuWQR7v8aWOptGOJp-3">
          <mxGeometry width="80" relative="1" as="geometry">
            <mxPoint x="179.5" y="220" as="sourcePoint" />
            <mxPoint x="509.5" y="220" as="targetPoint" />
          </mxGeometry>
        </mxCell>
        <mxCell id="kfOWuWQR7v8aWOptGOJp-7" value="alt" style="shape=umlFrame;whiteSpace=wrap;html=1;pointerEvents=0;" vertex="1" parent="1">
          <mxGeometry x="90" y="240" width="720" height="360" as="geometry" />
        </mxCell>
        <mxCell id="kfOWuWQR7v8aWOptGOJp-11" value="Ingres datos del producto (nombre, descripción, precio, etc)" style="html=1;verticalAlign=bottom;endArrow=block;curved=0;rounded=0;" edge="1" parent="1">
          <mxGeometry width="80" relative="1" as="geometry">
            <mxPoint x="179.32352941176464" y="289.9999999999998" as="sourcePoint" />
            <mxPoint x="544.5" y="289.9999999999998" as="targetPoint" />
          </mxGeometry>
        </mxCell>
        <mxCell id="kfOWuWQR7v8aWOptGOJp-12" value="" style="html=1;points=[[0,0,0,0,5],[0,1,0,0,-5],[1,0,0,0,5],[1,1,0,0,-5]];perimeter=orthogonalPerimeter;outlineConnect=0;targetShapes=umlLifeline;portConstraint=eastwest;newEdgeStyle={&quot;curved&quot;:0,&quot;rounded&quot;:0};" vertex="1" parent="1">
          <mxGeometry x="540" y="290" width="10" height="20" as="geometry" />
        </mxCell>
        <mxCell id="kfOWuWQR7v8aWOptGOJp-13" value="Valida la informacion" style="html=1;align=left;spacingLeft=2;endArrow=block;rounded=0;edgeStyle=orthogonalEdgeStyle;curved=0;rounded=0;entryX=1;entryY=0.001;entryDx=0;entryDy=0;entryPerimeter=0;" edge="1" parent="1" target="kfOWuWQR7v8aWOptGOJp-14">
          <mxGeometry relative="1" as="geometry">
            <mxPoint x="550" y="309.97" as="sourcePoint" />
            <Array as="points">
              <mxPoint x="580" y="310" />
              <mxPoint x="580" y="340" />
            </Array>
            <mxPoint x="555" y="340.02882352941174" as="targetPoint" />
          </mxGeometry>
        </mxCell>
        <mxCell id="kfOWuWQR7v8aWOptGOJp-14" value="" style="html=1;points=[[0,0,0,0,5],[0,1,0,0,-5],[1,0,0,0,5],[1,1,0,0,-5]];perimeter=orthogonalPerimeter;outlineConnect=0;targetShapes=umlLifeline;portConstraint=eastwest;newEdgeStyle={&quot;curved&quot;:0,&quot;rounded&quot;:0};" vertex="1" parent="1">
          <mxGeometry x="540" y="340" width="10" height="30" as="geometry" />
        </mxCell>
        <mxCell id="kfOWuWQR7v8aWOptGOJp-15" value="alt" style="shape=umlFrame;whiteSpace=wrap;html=1;pointerEvents=0;" vertex="1" parent="1">
          <mxGeometry x="130" y="390" width="630" height="200" as="geometry" />
        </mxCell>
        <mxCell id="kfOWuWQR7v8aWOptGOJp-18" value="Muestra mensaje de éxito" style="html=1;verticalAlign=bottom;endArrow=block;curved=0;rounded=0;" edge="1" parent="1">
          <mxGeometry x="0.027" width="80" relative="1" as="geometry">
            <mxPoint x="550" y="479.41" as="sourcePoint" />
            <mxPoint x="180" y="479.41" as="targetPoint" />
            <mxPoint x="-1" as="offset" />
          </mxGeometry>
        </mxCell>
        <mxCell id="kfOWuWQR7v8aWOptGOJp-19" value="" style="endArrow=none;dashed=1;html=1;rounded=0;entryX=1.002;entryY=0.491;entryDx=0;entryDy=0;entryPerimeter=0;exitX=0.004;exitY=0.562;exitDx=0;exitDy=0;exitPerimeter=0;" edge="1" parent="1" source="kfOWuWQR7v8aWOptGOJp-15">
          <mxGeometry width="50" height="50" relative="1" as="geometry">
            <mxPoint x="173.76999999999998" y="501.85999999999996" as="sourcePoint" />
            <mxPoint x="760" y="500.00000000000006" as="targetPoint" />
          </mxGeometry>
        </mxCell>
        <mxCell id="kfOWuWQR7v8aWOptGOJp-20" value="Muestra mensaje de error" style="html=1;verticalAlign=bottom;endArrow=block;curved=0;rounded=0;" edge="1" parent="1" target="kfOWuWQR7v8aWOptGOJp-2">
          <mxGeometry width="80" relative="1" as="geometry">
            <mxPoint x="550" y="520" as="sourcePoint" />
            <mxPoint x="210.00352941176465" y="519.9999999999998" as="targetPoint" />
          </mxGeometry>
        </mxCell>
        <mxCell id="kfOWuWQR7v8aWOptGOJp-21" value="Corrige datos y reintenta" style="html=1;verticalAlign=bottom;endArrow=block;curved=0;rounded=0;" edge="1" parent="1">
          <mxGeometry x="0.0142" width="80" relative="1" as="geometry">
            <mxPoint x="174.82352941176464" y="549.9999999999998" as="sourcePoint" />
            <mxPoint x="540" y="549.9999999999998" as="targetPoint" />
            <mxPoint as="offset" />
          </mxGeometry>
        </mxCell>
        <mxCell id="kfOWuWQR7v8aWOptGOJp-22" value="" style="html=1;points=[[0,0,0,0,5],[0,1,0,0,-5],[1,0,0,0,5],[1,1,0,0,-5]];perimeter=orthogonalPerimeter;outlineConnect=0;targetShapes=umlLifeline;portConstraint=eastwest;newEdgeStyle={&quot;curved&quot;:0,&quot;rounded&quot;:0};" vertex="1" parent="1">
          <mxGeometry x="540" y="445" width="10" height="35" as="geometry" />
        </mxCell>
        <mxCell id="kfOWuWQR7v8aWOptGOJp-23" value="Guarda el producto en el catalogo" style="html=1;align=left;spacingLeft=2;endArrow=block;rounded=0;edgeStyle=orthogonalEdgeStyle;curved=0;rounded=0;entryX=1;entryY=0;entryDx=0;entryDy=5;entryPerimeter=0;" edge="1" parent="1" target="kfOWuWQR7v8aWOptGOJp-22">
          <mxGeometry relative="1" as="geometry">
            <mxPoint x="545" y="420" as="sourcePoint" />
            <Array as="points">
              <mxPoint x="580" y="420" />
              <mxPoint x="580" y="450" />
            </Array>
            <mxPoint x="555" y="450.02857142857135" as="targetPoint" />
          </mxGeometry>
        </mxCell>
        <mxCell id="kfOWuWQR7v8aWOptGOJp-26" value="" style="html=1;points=[[0,0,0,0,5],[0,1,0,0,-5],[1,0,0,0,5],[1,1,0,0,-5]];perimeter=orthogonalPerimeter;outlineConnect=0;targetShapes=umlLifeline;portConstraint=eastwest;newEdgeStyle={&quot;curved&quot;:0,&quot;rounded&quot;:0};" vertex="1" parent="1">
          <mxGeometry x="175" y="480" width="10" height="20" as="geometry" />
        </mxCell>
        <mxCell id="kfOWuWQR7v8aWOptGOJp-29" value="" style="html=1;points=[[0,0,0,0,5],[0,1,0,0,-5],[1,0,0,0,5],[1,1,0,0,-5]];perimeter=orthogonalPerimeter;outlineConnect=0;targetShapes=umlLifeline;portConstraint=eastwest;newEdgeStyle={&quot;curved&quot;:0,&quot;rounded&quot;:0};" vertex="1" parent="1">
          <mxGeometry x="540" y="520" width="10" height="30" as="geometry" />
        </mxCell>
        <mxCell id="kfOWuWQR7v8aWOptGOJp-30" value="alt" style="shape=umlFrame;whiteSpace=wrap;html=1;pointerEvents=0;" vertex="1" parent="1">
          <mxGeometry x="90" y="640" width="590" height="270" as="geometry" />
        </mxCell>
        <mxCell id="kfOWuWQR7v8aWOptGOJp-31" value="" style="html=1;points=[[0,0,0,0,5],[0,1,0,0,-5],[1,0,0,0,5],[1,1,0,0,-5]];perimeter=orthogonalPerimeter;outlineConnect=0;targetShapes=umlLifeline;portConstraint=eastwest;newEdgeStyle={&quot;curved&quot;:0,&quot;rounded&quot;:0};" vertex="1" parent="1">
          <mxGeometry x="540" y="690" width="10" height="30" as="geometry" />
        </mxCell>
        <mxCell id="kfOWuWQR7v8aWOptGOJp-32" value="Verifica stock&amp;nbsp;&lt;div&gt;disponible&lt;/div&gt;" style="html=1;align=left;spacingLeft=2;endArrow=block;rounded=0;edgeStyle=orthogonalEdgeStyle;curved=0;rounded=0;exitX=0.5;exitY=0.609;exitDx=0;exitDy=0;exitPerimeter=0;" edge="1" parent="1" source="kfOWuWQR7v8aWOptGOJp-3" target="kfOWuWQR7v8aWOptGOJp-31">
          <mxGeometry relative="1" as="geometry">
            <mxPoint x="550" y="660" as="sourcePoint" />
            <Array as="points">
              <mxPoint x="580" y="660" />
              <mxPoint x="580" y="690" />
            </Array>
            <mxPoint x="555" y="690.0000000000002" as="targetPoint" />
          </mxGeometry>
        </mxCell>
        <mxCell id="kfOWuWQR7v8aWOptGOJp-33" value="alt" style="shape=umlFrame;whiteSpace=wrap;html=1;pointerEvents=0;" vertex="1" parent="1">
          <mxGeometry x="130" y="740" width="510" height="160" as="geometry" />
        </mxCell>
        <mxCell id="kfOWuWQR7v8aWOptGOJp-34" value="Impide eliminación, sugiere desactivar" style="html=1;verticalAlign=bottom;endArrow=block;curved=0;rounded=0;" edge="1" parent="1">
          <mxGeometry width="80" relative="1" as="geometry">
            <mxPoint x="550" y="790" as="sourcePoint" />
            <mxPoint x="185" y="790" as="targetPoint" />
          </mxGeometry>
        </mxCell>
        <mxCell id="kfOWuWQR7v8aWOptGOJp-37" value="Muestra mensaje de exito" style="html=1;verticalAlign=bottom;endArrow=block;curved=0;rounded=0;" edge="1" parent="1">
          <mxGeometry width="80" relative="1" as="geometry">
            <mxPoint x="550" y="869.9999999999998" as="sourcePoint" />
            <mxPoint x="184.57142857142867" y="869.9999999999998" as="targetPoint" />
          </mxGeometry>
        </mxCell>
        <mxCell id="kfOWuWQR7v8aWOptGOJp-38" value="" style="html=1;points=[[0,0,0,0,5],[0,1,0,0,-5],[1,0,0,0,5],[1,1,0,0,-5]];perimeter=orthogonalPerimeter;outlineConnect=0;targetShapes=umlLifeline;portConstraint=eastwest;newEdgeStyle={&quot;curved&quot;:0,&quot;rounded&quot;:0};" vertex="1" parent="1">
          <mxGeometry x="175" y="790" width="10" height="30" as="geometry" />
        </mxCell>
        <mxCell id="kfOWuWQR7v8aWOptGOJp-40" value="Administrador" style="shape=umlActor;verticalLabelPosition=bottom;verticalAlign=top;html=1;" vertex="1" parent="1">
          <mxGeometry x="165" y="990" width="30" height="60" as="geometry" />
        </mxCell>
        <mxCell id="kfOWuWQR7v8aWOptGOJp-41" value="Sistema" style="html=1;whiteSpace=wrap;" vertex="1" parent="1">
          <mxGeometry x="490" y="990" width="110" height="40" as="geometry" />
        </mxCell>
        <mxCell id="kfOWuWQR7v8aWOptGOJp-42" value="[Agregar producto]" style="text;align=center;fontStyle=1;verticalAlign=middle;spacingLeft=3;spacingRight=3;strokeColor=none;rotatable=0;points=[[0,0.5],[1,0.5]];portConstraint=eastwest;html=1;" vertex="1" parent="1">
          <mxGeometry x="165" y="240" width="80" height="26" as="geometry" />
        </mxCell>
        <mxCell id="kfOWuWQR7v8aWOptGOJp-43" value="[Datos validos]" style="text;align=center;fontStyle=1;verticalAlign=middle;spacingLeft=3;spacingRight=3;strokeColor=none;rotatable=0;points=[[0,0.5],[1,0.5]];portConstraint=eastwest;html=1;" vertex="1" parent="1">
          <mxGeometry x="195" y="390" width="80" height="26" as="geometry" />
        </mxCell>
        <mxCell id="kfOWuWQR7v8aWOptGOJp-44" value="[Datos inválidos]" style="text;align=center;fontStyle=1;verticalAlign=middle;spacingLeft=3;spacingRight=3;strokeColor=none;rotatable=0;points=[[0,0.5],[1,0.5]];portConstraint=eastwest;html=1;" vertex="1" parent="1">
          <mxGeometry x="140" y="500" width="80" height="26" as="geometry" />
        </mxCell>
        <mxCell id="kfOWuWQR7v8aWOptGOJp-45" value="[Eliminar producto]" style="text;align=center;fontStyle=1;verticalAlign=middle;spacingLeft=3;spacingRight=3;strokeColor=none;rotatable=0;points=[[0,0.5],[1,0.5]];portConstraint=eastwest;html=1;" vertex="1" parent="1">
          <mxGeometry x="170" y="640" width="80" height="26" as="geometry" />
        </mxCell>
        <mxCell id="kfOWuWQR7v8aWOptGOJp-46" value="[Stock disponible]" style="text;align=center;fontStyle=1;verticalAlign=middle;spacingLeft=3;spacingRight=3;strokeColor=none;rotatable=0;points=[[0,0.5],[1,0.5]];portConstraint=eastwest;html=1;" vertex="1" parent="1">
          <mxGeometry x="210" y="740" width="80" height="26" as="geometry" />
        </mxCell>
        <mxCell id="kfOWuWQR7v8aWOptGOJp-47" value="[Sin stock]" style="text;align=center;fontStyle=1;verticalAlign=middle;spacingLeft=3;spacingRight=3;strokeColor=none;rotatable=0;points=[[0,0.5],[1,0.5]];portConstraint=eastwest;html=1;" vertex="1" parent="1">
          <mxGeometry x="130" y="820" width="80" height="26" as="geometry" />
        </mxCell>
      </root>
    </mxGraphModel>
  </diagram>
</mxfile>
